<mxfile host="app.diagrams.net" modified="2023-04-18T22:16:26.175Z" agent="Mozilla/5.0 (Windows NT 10.0; Win64; x64) AppleWebKit/537.36 (KHTML, like Gecko) Chrome/112.0.0.0 Safari/537.36" etag="lj7qucx_8H7-9FhsUypC" version="21.1.5" type="github">
  <diagram name="Página-1" id="zZj1wLh5QYzwgUBmdin2">
    <mxGraphModel dx="1434" dy="834" grid="1" gridSize="10" guides="1" tooltips="1" connect="1" arrows="1" fold="1" page="1" pageScale="1" pageWidth="827" pageHeight="1169" math="0" shadow="0">
      <root>
        <mxCell id="0" />
        <mxCell id="1" parent="0" />
        <mxCell id="C0OR-mjWqN9Agcx5YfHq-13" style="edgeStyle=none;rounded=0;orthogonalLoop=1;jettySize=auto;html=1;exitX=0.5;exitY=0.5;exitDx=0;exitDy=0;exitPerimeter=0;entryX=0;entryY=0.5;entryDx=0;entryDy=0;endArrow=none;endFill=0;" edge="1" parent="1" source="C0OR-mjWqN9Agcx5YfHq-1" target="C0OR-mjWqN9Agcx5YfHq-12">
          <mxGeometry relative="1" as="geometry" />
        </mxCell>
        <mxCell id="C0OR-mjWqN9Agcx5YfHq-14" style="edgeStyle=none;rounded=0;orthogonalLoop=1;jettySize=auto;html=1;exitX=0.5;exitY=0.5;exitDx=0;exitDy=0;exitPerimeter=0;entryX=0;entryY=0.5;entryDx=0;entryDy=0;endArrow=none;endFill=0;" edge="1" parent="1" source="C0OR-mjWqN9Agcx5YfHq-1" target="C0OR-mjWqN9Agcx5YfHq-11">
          <mxGeometry relative="1" as="geometry" />
        </mxCell>
        <mxCell id="C0OR-mjWqN9Agcx5YfHq-15" style="edgeStyle=none;rounded=0;orthogonalLoop=1;jettySize=auto;html=1;exitX=0.5;exitY=0.5;exitDx=0;exitDy=0;exitPerimeter=0;entryX=0;entryY=0.5;entryDx=0;entryDy=0;endArrow=none;endFill=0;" edge="1" parent="1" source="C0OR-mjWqN9Agcx5YfHq-1" target="C0OR-mjWqN9Agcx5YfHq-9">
          <mxGeometry relative="1" as="geometry" />
        </mxCell>
        <mxCell id="C0OR-mjWqN9Agcx5YfHq-16" style="edgeStyle=none;rounded=0;orthogonalLoop=1;jettySize=auto;html=1;exitX=0.5;exitY=0.5;exitDx=0;exitDy=0;exitPerimeter=0;entryX=0;entryY=0.5;entryDx=0;entryDy=0;endArrow=none;endFill=0;" edge="1" parent="1" source="C0OR-mjWqN9Agcx5YfHq-1" target="C0OR-mjWqN9Agcx5YfHq-8">
          <mxGeometry relative="1" as="geometry" />
        </mxCell>
        <mxCell id="C0OR-mjWqN9Agcx5YfHq-17" style="edgeStyle=none;rounded=0;orthogonalLoop=1;jettySize=auto;html=1;exitX=0.5;exitY=0.5;exitDx=0;exitDy=0;exitPerimeter=0;entryX=0;entryY=0.5;entryDx=0;entryDy=0;endArrow=none;endFill=0;" edge="1" parent="1" source="C0OR-mjWqN9Agcx5YfHq-1" target="C0OR-mjWqN9Agcx5YfHq-7">
          <mxGeometry relative="1" as="geometry" />
        </mxCell>
        <mxCell id="C0OR-mjWqN9Agcx5YfHq-18" style="edgeStyle=none;rounded=0;orthogonalLoop=1;jettySize=auto;html=1;exitX=0.5;exitY=0.5;exitDx=0;exitDy=0;exitPerimeter=0;entryX=0;entryY=0.5;entryDx=0;entryDy=0;endArrow=none;endFill=0;" edge="1" parent="1" source="C0OR-mjWqN9Agcx5YfHq-1" target="C0OR-mjWqN9Agcx5YfHq-4">
          <mxGeometry relative="1" as="geometry" />
        </mxCell>
        <mxCell id="C0OR-mjWqN9Agcx5YfHq-19" style="edgeStyle=none;rounded=0;orthogonalLoop=1;jettySize=auto;html=1;exitX=0.5;exitY=0.5;exitDx=0;exitDy=0;exitPerimeter=0;entryX=0;entryY=0.5;entryDx=0;entryDy=0;endArrow=none;endFill=0;" edge="1" parent="1" source="C0OR-mjWqN9Agcx5YfHq-1" target="C0OR-mjWqN9Agcx5YfHq-5">
          <mxGeometry relative="1" as="geometry" />
        </mxCell>
        <mxCell id="C0OR-mjWqN9Agcx5YfHq-20" style="edgeStyle=none;rounded=0;orthogonalLoop=1;jettySize=auto;html=1;exitX=0.5;exitY=0.5;exitDx=0;exitDy=0;exitPerimeter=0;entryX=0;entryY=0.5;entryDx=0;entryDy=0;endArrow=none;endFill=0;" edge="1" parent="1" source="C0OR-mjWqN9Agcx5YfHq-1" target="C0OR-mjWqN9Agcx5YfHq-6">
          <mxGeometry relative="1" as="geometry" />
        </mxCell>
        <mxCell id="C0OR-mjWqN9Agcx5YfHq-33" style="edgeStyle=none;rounded=0;orthogonalLoop=1;jettySize=auto;html=1;exitX=0.5;exitY=0.5;exitDx=0;exitDy=0;exitPerimeter=0;entryX=0;entryY=0.5;entryDx=0;entryDy=0;endArrow=none;endFill=0;" edge="1" parent="1" source="C0OR-mjWqN9Agcx5YfHq-1" target="C0OR-mjWqN9Agcx5YfHq-10">
          <mxGeometry relative="1" as="geometry" />
        </mxCell>
        <mxCell id="C0OR-mjWqN9Agcx5YfHq-1" value="Hóspede" style="shape=umlActor;html=1;verticalLabelPosition=bottom;verticalAlign=top;align=center;" vertex="1" parent="1">
          <mxGeometry x="10" y="350" width="50" height="90" as="geometry" />
        </mxCell>
        <mxCell id="C0OR-mjWqN9Agcx5YfHq-21" style="edgeStyle=none;rounded=0;orthogonalLoop=1;jettySize=auto;html=1;exitX=0.5;exitY=0.5;exitDx=0;exitDy=0;exitPerimeter=0;entryX=1;entryY=0.5;entryDx=0;entryDy=0;endArrow=none;endFill=0;" edge="1" parent="1" source="C0OR-mjWqN9Agcx5YfHq-2" target="C0OR-mjWqN9Agcx5YfHq-7">
          <mxGeometry relative="1" as="geometry" />
        </mxCell>
        <mxCell id="C0OR-mjWqN9Agcx5YfHq-23" style="edgeStyle=none;rounded=0;orthogonalLoop=1;jettySize=auto;html=1;exitX=0.5;exitY=0.5;exitDx=0;exitDy=0;exitPerimeter=0;entryX=0.5;entryY=0;entryDx=0;entryDy=0;endArrow=none;endFill=0;" edge="1" parent="1" source="C0OR-mjWqN9Agcx5YfHq-2" target="C0OR-mjWqN9Agcx5YfHq-22">
          <mxGeometry relative="1" as="geometry" />
        </mxCell>
        <mxCell id="C0OR-mjWqN9Agcx5YfHq-26" style="edgeStyle=none;rounded=0;orthogonalLoop=1;jettySize=auto;html=1;exitX=0.5;exitY=0.5;exitDx=0;exitDy=0;exitPerimeter=0;entryX=1;entryY=0.5;entryDx=0;entryDy=0;endArrow=none;endFill=0;" edge="1" parent="1" source="C0OR-mjWqN9Agcx5YfHq-2" target="C0OR-mjWqN9Agcx5YfHq-8">
          <mxGeometry relative="1" as="geometry" />
        </mxCell>
        <mxCell id="C0OR-mjWqN9Agcx5YfHq-30" style="edgeStyle=none;rounded=0;orthogonalLoop=1;jettySize=auto;html=1;exitX=0.5;exitY=0.5;exitDx=0;exitDy=0;exitPerimeter=0;entryX=0.5;entryY=1;entryDx=0;entryDy=0;endArrow=none;endFill=0;" edge="1" parent="1" source="C0OR-mjWqN9Agcx5YfHq-2" target="C0OR-mjWqN9Agcx5YfHq-29">
          <mxGeometry relative="1" as="geometry" />
        </mxCell>
        <mxCell id="C0OR-mjWqN9Agcx5YfHq-2" value="Funcionário do Hotel" style="shape=umlActor;html=1;verticalLabelPosition=bottom;verticalAlign=top;align=center;" vertex="1" parent="1">
          <mxGeometry x="680" y="350" width="50" height="90" as="geometry" />
        </mxCell>
        <mxCell id="C0OR-mjWqN9Agcx5YfHq-27" style="edgeStyle=none;rounded=0;orthogonalLoop=1;jettySize=auto;html=1;exitX=0.5;exitY=0.5;exitDx=0;exitDy=0;exitPerimeter=0;entryX=0.5;entryY=0;entryDx=0;entryDy=0;endArrow=none;endFill=0;" edge="1" parent="1" source="C0OR-mjWqN9Agcx5YfHq-3" target="C0OR-mjWqN9Agcx5YfHq-24">
          <mxGeometry relative="1" as="geometry" />
        </mxCell>
        <mxCell id="C0OR-mjWqN9Agcx5YfHq-28" style="edgeStyle=none;rounded=0;orthogonalLoop=1;jettySize=auto;html=1;exitX=0.5;exitY=0.5;exitDx=0;exitDy=0;exitPerimeter=0;entryX=0.5;entryY=0;entryDx=0;entryDy=0;endArrow=none;endFill=0;" edge="1" parent="1" source="C0OR-mjWqN9Agcx5YfHq-3" target="C0OR-mjWqN9Agcx5YfHq-25">
          <mxGeometry relative="1" as="geometry" />
        </mxCell>
        <mxCell id="C0OR-mjWqN9Agcx5YfHq-3" value="Sistema de pagamento&lt;br&gt;" style="shape=umlActor;html=1;verticalLabelPosition=bottom;verticalAlign=top;align=center;" vertex="1" parent="1">
          <mxGeometry x="730" y="640" width="40" height="90" as="geometry" />
        </mxCell>
        <mxCell id="C0OR-mjWqN9Agcx5YfHq-4" value="Fazer Check-In" style="ellipse;whiteSpace=wrap;html=1;" vertex="1" parent="1">
          <mxGeometry x="300" y="70" width="140" height="70" as="geometry" />
        </mxCell>
        <mxCell id="C0OR-mjWqN9Agcx5YfHq-5" value="Fazer Reserva" style="ellipse;whiteSpace=wrap;html=1;" vertex="1" parent="1">
          <mxGeometry x="300" y="150" width="140" height="70" as="geometry" />
        </mxCell>
        <mxCell id="C0OR-mjWqN9Agcx5YfHq-6" value="Cadastrar Hóspede" style="ellipse;whiteSpace=wrap;html=1;" vertex="1" parent="1">
          <mxGeometry x="300" y="240" width="140" height="70" as="geometry" />
        </mxCell>
        <mxCell id="C0OR-mjWqN9Agcx5YfHq-7" value="Alugar Quarto" style="ellipse;whiteSpace=wrap;html=1;" vertex="1" parent="1">
          <mxGeometry x="300" y="320" width="140" height="70" as="geometry" />
        </mxCell>
        <mxCell id="C0OR-mjWqN9Agcx5YfHq-8" value="Solicitar Serviço" style="ellipse;whiteSpace=wrap;html=1;" vertex="1" parent="1">
          <mxGeometry x="300" y="410" width="140" height="70" as="geometry" />
        </mxCell>
        <mxCell id="C0OR-mjWqN9Agcx5YfHq-9" value="Consumir Produto do Frigobar" style="ellipse;whiteSpace=wrap;html=1;" vertex="1" parent="1">
          <mxGeometry x="300" y="490" width="140" height="70" as="geometry" />
        </mxCell>
        <mxCell id="C0OR-mjWqN9Agcx5YfHq-10" value="Fazer Check-Out" style="ellipse;whiteSpace=wrap;html=1;" vertex="1" parent="1">
          <mxGeometry x="300" y="580" width="140" height="70" as="geometry" />
        </mxCell>
        <mxCell id="C0OR-mjWqN9Agcx5YfHq-11" value="Pagar a Fatura" style="ellipse;whiteSpace=wrap;html=1;" vertex="1" parent="1">
          <mxGeometry x="300" y="670" width="140" height="70" as="geometry" />
        </mxCell>
        <mxCell id="C0OR-mjWqN9Agcx5YfHq-12" value="Encerrar Estadia" style="ellipse;whiteSpace=wrap;html=1;" vertex="1" parent="1">
          <mxGeometry x="300" y="770" width="140" height="70" as="geometry" />
        </mxCell>
        <mxCell id="C0OR-mjWqN9Agcx5YfHq-22" value="Adicionar Serviço na Fatura" style="ellipse;whiteSpace=wrap;html=1;" vertex="1" parent="1">
          <mxGeometry x="500" y="480" width="140" height="70" as="geometry" />
        </mxCell>
        <mxCell id="C0OR-mjWqN9Agcx5YfHq-24" value="Realizar Pagamento" style="ellipse;whiteSpace=wrap;html=1;" vertex="1" parent="1">
          <mxGeometry x="510" y="780" width="140" height="70" as="geometry" />
        </mxCell>
        <mxCell id="C0OR-mjWqN9Agcx5YfHq-25" value="Adicionar Produto do Frigobar na Fatura" style="ellipse;whiteSpace=wrap;html=1;" vertex="1" parent="1">
          <mxGeometry x="500" y="640" width="140" height="70" as="geometry" />
        </mxCell>
        <mxCell id="C0OR-mjWqN9Agcx5YfHq-31" style="edgeStyle=none;rounded=0;orthogonalLoop=1;jettySize=auto;html=1;exitX=0;exitY=0.5;exitDx=0;exitDy=0;entryX=1;entryY=0.5;entryDx=0;entryDy=0;dashed=1;" edge="1" parent="1" source="C0OR-mjWqN9Agcx5YfHq-29" target="C0OR-mjWqN9Agcx5YfHq-5">
          <mxGeometry relative="1" as="geometry" />
        </mxCell>
        <mxCell id="C0OR-mjWqN9Agcx5YfHq-29" value="Manter Cadastro de Hóspede" style="ellipse;whiteSpace=wrap;html=1;" vertex="1" parent="1">
          <mxGeometry x="540" y="160" width="140" height="70" as="geometry" />
        </mxCell>
        <mxCell id="C0OR-mjWqN9Agcx5YfHq-32" value="&amp;lt;&amp;lt;extend&amp;gt;&amp;gt;" style="text;html=1;strokeColor=none;fillColor=none;align=center;verticalAlign=middle;whiteSpace=wrap;rounded=0;" vertex="1" parent="1">
          <mxGeometry x="470" y="160" width="60" height="30" as="geometry" />
        </mxCell>
      </root>
    </mxGraphModel>
  </diagram>
</mxfile>
